<svg version="1.1" xmlns="http://www.w3.org/2000/svg" xmlns:xlink="http://www.w3.org/1999/xlink" x="0px" y="0px" viewBox="0 0 1000 1000" enable-background="new 0 0 1000 1000" xml:space="preserve">
<g><g transform="translate(0.000000,511.000000) scale(0.100000,-0.100000)"><path d="M4731.7,4997.5c-209.6-21.8-471.5-100.4-619.9-187.7c-144.1-82.9-303.4-257.6-377.6-408.2c-63.3-128.8-91.7-246.7-120.1-495.5c-10.9-96-24-126.6-58.9-144.1c-41.5-17.5-85.1,17.5-375.4,310c-371.1,368.9-615.5,554.4-940.8,711.6c-347.1,165.9-648.3,224.8-892.8,172.4c-109.1-21.8-148.4-45.8-248.8-137.5c-399.5-379.8-585-870.9-628.7-1658.9c-15.3-320.9,17.5-761.8,80.8-1054.3c93.9-432.2,314.3-1154.7,613.4-2001.6l128.8-366.7l-89.5-1543.2c-96.1-1696-102.6-1903.4-54.6-2075.8c98.2-375.4,364.5-652.6,753.1-790.1c340.5-120.1,275-117.9,3154.1-117.9c2486.2,0,2676.1,2.2,2846.3,39.3c360.2,78.6,628.6,216.1,798.9,412.6c111.3,128.8,227,377.6,257.6,554.4c24,139.7-21.8,1141.6-148.4,3239.2l-28.4,469.3l224.8,676.7c366.7,1100.1,475.8,1523.6,515.1,2019.1c48,585-26.2,1174.3-196.5,1586.9c-89.5,216.1-192.1,368.9-377.6,558.8c-148.4,152.8-168.1,165.9-290.3,189.9c-242.3,50.2-545.7-6.5-875.3-163.7c-351.4-163.7-659.2-397.3-1019.4-772.7c-115.7-122.2-220.5-220.5-231.4-220.5c-37.1,0-52.4,48-78.6,251c-61.1,478-384.2,816.3-873.1,916.8C5375.6,5006.3,4969.6,5023.7,4731.7,4997.5z M5508.7,4650.5c69.9-26.2,165.9-78.6,216.1-115.7c113.5-87.3,227-292.5,244.5-449.6l15.3-117.9l-61.1,13.1c-360.1,69.9-1314,74.2-1643.6,6.6c-89.5-19.6-168.1-34.9-172.4-34.9s-2.2,56.7,6.5,126.6c37.1,316.5,240.1,526,589.3,606.8C4908.5,4731.3,5347.2,4713.8,5508.7,4650.5z M2046.9,3190.2c155-98.2,176.8-122.2,242.3-251l69.9-144.1l-98.2-141.9c-52.4-78.6-144.1-224.8-200.8-329.6c-56.7-102.6-109.1-172.4-113.5-157.2c-4.4,15.3-50.2,163.7-100.4,329.6l-89.5,299l43.7,251c24,137.5,50.2,251,58.9,251C1870,3297.2,1953,3249.1,2046.9,3190.2z M5746.7,3244.8c213.9-50.2,440.9-133.2,595.9-220.5c742.1-414.7,1226.7-1292.2,1469-2656.4l41.5-235.7H5041.6H2228l8.7,50.2c6.6,26.2,32.7,161.5,56.8,299c299,1654.5,1052.1,2591,2237.3,2785.2C4766.6,3305.9,5543.6,3290.6,5746.7,3244.8z M8200.1,3048.3l43.7-251l-78.6-261.9c-41.5-146.3-80.8-264.1-87.3-264.1s-34.9,45.8-65.5,102.6c-30.6,56.7-115.7,196.5-189.9,307.8l-137.5,203l50.2,100.4c39.3,74.2,89.5,122.2,213.9,203c89.5,58.9,172.4,107,183.4,107C8145.5,3297.2,8176.1,3185.8,8200.1,3048.3z"/><path d="M4570.1,3004.7c-755.2-144.1-1283.5-637.4-1610.9-1512.7c-76.4-203-174.6-580.6-224.8-862.2l-41.5-235.7h2346.5h2346.5l-15.3,115.7c-28.4,209.6-124.4,613.4-211.7,875.3c-296.9,897.1-757.4,1401.3-1449.4,1586.9C5484.7,3033.1,4816.8,3050.5,4570.1,3004.7z"/></g></g>
</svg>